<svg width="27" height="23" viewBox="0 0 27 23" fill="none" xmlns="http://www.w3.org/2000/svg">
<path fill-rule="evenodd" clip-rule="evenodd" d="M2.40167 0.19871C2.56066 0.0800012 2.75137 0.0112734 2.94954 0.00127162C3.1477 -0.00873019 3.34436 0.0404462 3.5145 0.142544L6.84783 2.14254C6.99591 2.23139 7.11846 2.35707 7.20354 2.50734C7.28862 2.65761 7.33333 2.82736 7.33333 3.00004V19.6667C7.33333 19.8394 7.28862 20.0091 7.20354 20.1594C7.11846 20.3097 6.99591 20.4354 6.84783 20.5242L3.5145 22.5242C3.34435 22.6263 3.14768 22.6754 2.94951 22.6654C2.75134 22.6554 2.56064 22.5866 2.40167 22.4679L0.401667 20.9744C0.276987 20.8813 0.175753 20.7604 0.106022 20.6213C0.0362902 20.4822 -1.34576e-05 20.3288 3.7422e-09 20.1732V2.49354C1.2548e-05 2.33796 0.0363275 2.18453 0.106057 2.04544C0.175786 1.90636 0.277006 1.78547 0.401667 1.69238L2.40167 0.19871ZM3.06083 2.20271L2 2.99488V19.6717L3.06083 20.4639L5.33333 19.1005V3.56621L3.06083 2.20271ZM17.4927 4.12988C17.6467 4.21706 17.7748 4.34354 17.8639 4.49642C17.953 4.64929 18 4.82308 18 5.00004V14.3334C18 14.5061 17.9553 14.6758 17.8702 14.8261C17.7851 14.9764 17.6626 15.102 17.5145 15.1909L13.8478 17.3909C13.6924 17.4841 13.5146 17.5334 13.3333 17.5334C13.1521 17.5334 12.9742 17.4841 12.8188 17.3909L9.15217 15.1909C9.00409 15.102 8.88154 14.9764 8.79646 14.8261C8.71138 14.6758 8.66666 14.5061 8.66667 14.3334V5.00004C8.66666 4.82308 8.71362 4.64928 8.80275 4.4964C8.89187 4.34352 9.01997 4.21703 9.17396 4.12984C9.32796 4.04264 9.50233 3.99788 9.67928 4.00011C9.85623 4.00235 10.0294 4.0515 10.1812 4.14254L13.3333 6.03388L16.4855 4.14254C16.6372 4.05151 16.8104 4.00237 16.9874 4.00014C17.1643 3.99792 17.3387 4.04269 17.4927 4.12988ZM16 6.76621L13.8478 8.05754C13.6924 8.15079 13.5146 8.20005 13.3333 8.20005C13.1521 8.20005 12.9742 8.15079 12.8188 8.05754L10.6667 6.76621V13.7672L13.3333 15.3672L16 13.7672V6.76621ZM23.1522 0.142544C23.3223 0.0404462 23.519 -0.00873019 23.7171 0.00127162C23.9153 0.0112734 24.106 0.0800012 24.265 0.19871L26.265 1.69238C26.3896 1.78545 26.4908 1.90632 26.5606 2.04537C26.6303 2.18442 26.6666 2.33782 26.6667 2.49338V20.1734C26.6667 20.329 26.6304 20.4824 26.5607 20.6215C26.4909 20.7606 26.3897 20.8815 26.265 20.9745L24.265 22.468C24.106 22.5868 23.9153 22.6555 23.7172 22.6656C23.519 22.6756 23.3223 22.6264 23.1522 22.5244L19.8188 20.5244C19.6707 20.4355 19.5482 20.3098 19.4631 20.1595C19.378 20.0092 19.3333 19.8394 19.3333 19.6667V3.00004C19.3333 2.82736 19.378 2.65761 19.4631 2.50734C19.5482 2.35707 19.6708 2.23139 19.8188 2.14254L23.1522 0.142544ZM24.6667 2.99488L23.6058 2.20271L21.3333 3.56621V19.1005L23.6058 20.464L24.6667 19.6719V2.99488Z" fill="#FFF04E"/>
</svg>
