<svg width="30" height="14" viewBox="0 0 30 14" fill="none" xmlns="http://www.w3.org/2000/svg">
<circle cx="1" cy="1" r="1" fill="white" fill-opacity="0.9"/>
<circle cx="9" cy="1" r="1" fill="white" fill-opacity="0.9"/>
<circle cx="1" cy="9" r="1" fill="white" fill-opacity="0.9"/>
<circle cx="9" cy="9" r="1" fill="white" fill-opacity="0.9"/>
<circle cx="17" cy="9" r="1" fill="white" fill-opacity="0.9"/>
<circle cx="17" cy="1" r="1" fill="white" fill-opacity="0.9"/>
<circle cx="5" cy="1" r="1" fill="white" fill-opacity="0.9"/>
<circle cx="13" cy="1" r="1" fill="white" fill-opacity="0.9"/>
<circle cx="5" cy="9" r="1" fill="white" fill-opacity="0.9"/>
<circle cx="13" cy="9" r="1" fill="white" fill-opacity="0.9"/>
<circle cx="25" cy="9" r="1" fill="white" fill-opacity="0.9"/>
<circle cx="29" cy="9" r="1" fill="white" fill-opacity="0.9"/>
<circle cx="25" cy="1" r="1" fill="white" fill-opacity="0.9"/>
<circle cx="29" cy="1" r="1" fill="white" fill-opacity="0.9"/>
<circle cx="1" cy="5" r="1" fill="white" fill-opacity="0.9"/>
<circle cx="9" cy="5" r="1" fill="white" fill-opacity="0.9"/>
<circle cx="1" cy="13" r="1" fill="white" fill-opacity="0.9"/>
<circle cx="9" cy="13" r="1" fill="white" fill-opacity="0.9"/>
<circle cx="17" cy="13" r="1" fill="white" fill-opacity="0.9"/>
<circle cx="17" cy="5" r="1" fill="white" fill-opacity="0.9"/>
<circle cx="13" cy="5" r="1" fill="white" fill-opacity="0.9"/>
<circle cx="13" cy="13" r="1" fill="white" fill-opacity="0.9"/>
<circle cx="21" cy="13" r="1" fill="white" fill-opacity="0.9"/>
<circle cx="25" cy="13" r="1" fill="white" fill-opacity="0.9"/>
<circle cx="29" cy="13" r="1" fill="white" fill-opacity="0.9"/>
<circle cx="21" cy="5" r="1" fill="white" fill-opacity="0.9"/>
<circle cx="25" cy="5" r="1" fill="white" fill-opacity="0.9"/>
</svg>
