<svg width="24" height="20" viewBox="0 0 24 20" fill="none" xmlns="http://www.w3.org/2000/svg">
<path d="M15.7343 19.6182H15.5351C13.1451 19.6182 10.7551 19.6182 8.36505 19.6182C8.0663 19.6182 7.86714 19.5187 7.76755 19.3195C5.27795 16.1328 2.68877 13.0456 0.199168 9.85892C0.0995838 9.65975 0 9.56016 0 9.36099C0 6.27385 0 3.2863 0 0.19917C0 0.0995848 -9.64546e-08 0 0.0995839 0H0.199168C5.37753 6.47303 10.5559 12.9461 15.6347 19.4191C15.6347 19.4191 15.6347 19.5187 15.7343 19.5187V19.6182Z" fill="#FF4654"/>
<path d="M23.7012 9.85891C23.0042 10.7552 22.2075 11.6514 21.5104 12.6473C21.3112 12.8465 21.1121 12.946 20.9129 12.946C18.5229 12.946 16.1329 12.946 13.8424 12.946H13.7429C13.6433 12.946 13.5437 12.8465 13.6433 12.7469C13.6433 12.7469 13.6433 12.6473 13.7429 12.6473C16.1329 9.65975 18.4233 6.77178 20.8133 3.78423C21.8092 2.58921 22.805 1.2946 23.7012 0.0995849C23.7012 -9.64556e-08 23.8008 0 23.9004 0H24C24 0.099585 24 0.0995848 24 0.19917C24 3.18672 24 6.27385 24 9.2614C23.9004 9.56016 23.8008 9.75933 23.7012 9.85891Z" fill="#FF4654"/>
</svg>
